<svg width="543" height="325" viewBox="0 0 543 325" fill="none" xmlns="http://www.w3.org/2000/svg">
<g clip-path="url(#clip0)">
<path d="M415.734 321.325C408.782 315.444 404.559 306.154 405.666 297.11C406.774 288.066 413.633 279.752 422.53 277.832C431.427 275.911 441.568 281.228 444.271 289.928C445.758 273.154 447.472 255.676 456.38 241.391C464.447 228.457 478.418 219.201 493.559 217.545C508.701 215.89 524.643 222.143 534.086 234.108C543.529 246.072 545.842 263.466 539.228 277.202C534.356 287.321 525.379 294.851 515.975 300.978C485.584 320.608 449.135 328.591 413.333 323.458L415.734 321.325Z" fill="#F2F2F2"/>
<path d="M519.113 222.49C506.619 232.678 495.158 244.072 484.894 256.507C468.831 275.903 455.833 297.648 446.352 320.986C445.658 322.689 448.42 323.43 449.106 321.746C464.618 283.817 489.382 250.386 521.132 224.512C522.558 223.349 520.527 221.337 519.113 222.49Z" fill="white"/>
<path d="M174.8 319.727C184.349 311.65 190.149 298.89 188.628 286.468C187.107 274.046 177.686 262.627 165.466 259.989C153.246 257.352 139.316 264.653 135.605 276.604C133.562 253.564 131.208 229.559 118.973 209.938C107.893 192.172 88.7039 179.46 67.9069 177.186C47.11 174.912 25.2134 183.501 12.2431 199.934C-0.727181 216.367 -3.90291 240.258 5.18116 259.124C11.8731 273.022 24.2019 283.366 37.1195 291.781C78.3311 318.627 129.454 329.823 178.098 322.656" fill="#F2F2F2"/>
<path d="M32.8089 183.977C49.969 197.97 65.7115 213.62 79.8089 230.7C93.9084 247.763 106.322 266.155 116.874 285.617C122.772 296.535 128.071 307.766 132.746 319.262C133.699 321.601 129.906 322.619 128.964 320.306C120.683 300.039 110.438 280.633 98.3752 262.367C86.3715 244.167 72.6325 227.176 57.3514 211.632C48.7083 202.844 39.5892 194.539 30.0352 186.754C28.0769 185.158 30.8668 182.394 32.8089 183.977L32.8089 183.977Z" fill="white"/>
<path d="M389.774 324.289H161.964V90.2884C161.964 40.5031 202.422 0 252.152 0H299.586C349.316 0 389.774 40.5031 389.774 90.2884V324.289Z" fill="#F2F2F2"/>
<path d="M342.34 324.289H161.964V90.2884C161.914 71.2119 167.948 52.6174 179.187 37.2124C179.602 36.647 180.015 36.089 180.441 35.5371C185.877 28.399 192.347 22.1127 199.636 16.8855C200.048 16.5855 200.461 16.2908 200.881 15.9961C206.98 11.7706 213.577 8.31637 220.524 5.71198C220.936 5.55547 221.356 5.39864 221.776 5.24823C228.058 3.00387 234.57 1.4665 241.192 0.664497C241.602 0.608356 242.024 0.564424 242.445 0.520492C248.898 -0.170242 255.406 -0.170242 261.859 0.520492C262.28 0.564424 262.701 0.60835 263.117 0.665098C269.737 1.46715 276.247 3.00434 282.527 5.24826C282.948 5.39867 283.368 5.55548 283.781 5.7123C290.642 8.28384 297.162 11.6866 303.196 15.8445C303.615 16.1328 304.035 16.4275 304.448 16.7222C308.534 19.6419 312.372 22.8946 315.922 26.4472C318.769 29.2967 321.422 32.3341 323.864 35.539C324.289 36.0891 324.702 36.6471 325.115 37.2115C336.355 52.6167 342.389 71.2115 342.34 90.2884V324.289Z" fill="#CCCCCC"/>
<path d="M327.672 219.629C333.188 219.629 337.659 215.153 337.659 209.632C337.659 204.11 333.188 199.634 327.672 199.634C322.157 199.634 317.686 204.11 317.686 209.632C317.686 215.153 322.157 219.629 327.672 219.629Z" fill="#3EBFB9"/>
<path d="M371.112 317.28H363.46L359.819 287.733L371.113 287.733L371.112 317.28Z" fill="#FFB8B8"/>
<path d="M357.994 315.091H372.751V324.393H348.703C348.703 323.171 348.943 321.962 349.41 320.833C349.877 319.705 350.561 318.679 351.424 317.815C352.287 316.952 353.311 316.266 354.438 315.799C355.566 315.332 356.774 315.091 357.994 315.091Z" fill="#2F2E41"/>
<path d="M409.184 317.28H401.532L397.892 287.733L409.185 287.733L409.184 317.28Z" fill="#FFB8B8"/>
<path d="M396.067 315.091H410.824V324.393H386.775C386.775 323.171 387.015 321.962 387.482 320.833C387.949 319.705 388.634 318.679 389.496 317.815C390.359 316.952 391.384 316.266 392.511 315.799C393.638 315.332 394.846 315.091 396.067 315.091Z" fill="#2F2E41"/>
<path d="M332.726 211.612C332.176 210.8 331.81 209.877 331.654 208.908C331.499 207.94 331.557 206.948 331.826 206.005C332.094 205.061 332.566 204.187 333.208 203.446C333.85 202.704 334.647 202.113 335.542 201.713L361.553 129.94L374.352 136.933L344.653 205.522C345.224 207.071 345.208 208.777 344.607 210.316C344.006 211.855 342.862 213.119 341.392 213.87C339.922 214.621 338.228 214.806 336.631 214.39C335.034 213.973 333.644 212.985 332.726 211.612Z" fill="#FFB8B8"/>
<path d="M405.276 225.099C404.425 224.61 403.692 223.942 403.128 223.139C402.564 222.337 402.182 221.42 402.01 220.454C401.838 219.488 401.879 218.496 402.131 217.548C402.384 216.6 402.841 215.718 403.47 214.966L395.412 139.043L409.978 139.709L413.327 214.389C414.519 215.531 415.252 217.072 415.385 218.719C415.519 220.365 415.045 222.004 414.052 223.324C413.06 224.644 411.618 225.554 410.001 225.881C408.383 226.208 406.702 225.93 405.276 225.099Z" fill="#FFB8B8"/>
<path d="M382.038 116.646C390.505 116.646 397.368 109.775 397.368 101.3C397.368 92.8239 390.505 85.953 382.038 85.953C373.572 85.953 366.709 92.8239 366.709 101.3C366.709 109.775 373.572 116.646 382.038 116.646Z" fill="#FFB8B8"/>
<path d="M405.178 207.831H358.962L359.018 207.471C359.101 206.933 367.254 153.461 361.241 135.968C360.637 134.249 360.69 132.367 361.39 130.685C362.089 129.002 363.385 127.638 365.029 126.856H365.029C373.625 122.803 390.124 117.813 404.05 129.923C406.099 131.734 407.7 133.998 408.724 136.535C409.749 139.072 410.17 141.813 409.954 144.542L405.178 207.831Z" fill="#3EBFB9"/>
<path d="M367.838 161.364L347.032 157.138L356.785 134C357.368 131.759 358.816 129.841 360.81 128.668C362.804 127.494 365.182 127.16 367.422 127.739C369.662 128.317 371.581 129.762 372.758 131.756C373.936 133.749 374.275 136.129 373.702 138.373L367.838 161.364Z" fill="#3EBFB9"/>
<path d="M394.487 169.21L393.236 140.504C392.287 135.108 395.373 130.007 400.118 129.173C404.865 128.342 409.5 132.085 410.453 137.521L415.155 164.343L394.487 169.21Z" fill="#3EBFB9"/>
<path d="M403.64 204.395C411.076 232.748 411.888 268.796 409.881 308.117L399.895 306.867L381.795 231.887L371.809 308.117L360.575 307.492C357.218 266.235 353.95 230.816 359.326 207.519L403.64 204.395Z" fill="#2F2E41"/>
<path d="M392.139 113.16C389.279 116.21 383.968 114.572 383.596 110.406C383.566 110.083 383.569 109.757 383.602 109.434C383.794 107.589 384.859 105.913 384.604 103.965C384.547 103.48 384.366 103.017 384.08 102.622C381.801 99.5668 376.452 103.988 374.301 101.223C372.982 99.5268 374.532 96.8568 373.52 94.9615C372.185 92.4599 368.228 93.6939 365.747 92.3239C362.987 90.7997 363.152 86.5597 364.969 83.9808C367.185 80.8356 371.07 79.1573 374.907 78.9155C378.744 78.6736 382.555 79.712 386.137 81.1095C390.207 82.6974 394.243 84.892 396.748 88.4748C399.794 92.8318 400.087 98.6895 398.564 103.784C397.637 106.883 394.474 110.669 392.139 113.16Z" fill="#2F2E41"/>
<path d="M524.264 324.691H63.4671C63.2704 324.69 63.0819 324.611 62.943 324.472C62.8041 324.332 62.7261 324.144 62.7261 323.947C62.7261 323.75 62.8041 323.561 62.943 323.421C63.0819 323.282 63.2704 323.203 63.4671 323.203H524.264C524.461 323.203 524.65 323.282 524.788 323.421C524.927 323.561 525.005 323.75 525.005 323.947C525.005 324.144 524.927 324.332 524.788 324.472C524.65 324.611 524.461 324.69 524.264 324.691Z" fill="#3F3D56"/>
<path d="M292.721 256.494H211.583C210.514 256.5 209.487 256.081 208.726 255.33C207.966 254.578 207.534 253.555 207.526 252.486V71.1781C207.534 70.1083 207.966 69.0855 208.726 68.3341C209.487 67.5826 210.514 67.1638 211.583 67.1696H292.721C293.789 67.1638 294.817 67.5826 295.577 68.3341C296.338 69.0855 296.769 70.1083 296.778 71.1781V252.486C296.769 253.555 296.338 254.578 295.577 255.33C294.817 256.081 293.789 256.5 292.721 256.494Z" fill="white"/>
<path d="M296.778 125.835H207.526V127.085H296.778V125.835Z" fill="#CCCCCC"/>
<path d="M297.09 197.135H207.838V198.385H297.09V197.135Z" fill="#CCCCCC"/>
<path d="M236.86 67.1696H235.612V257.119H236.86V67.1696Z" fill="#CCCCCC"/>
<path d="M268.067 67.1696H266.819V257.119H268.067V67.1696Z" fill="#CCCCCC"/>
</g>
<defs>
<clipPath id="clip0">
<rect width="543" height="325" fill="white"/>
</clipPath>
</defs>
</svg>
